<svg width="20" height="20" viewBox="0 0 20 20" fill="none" xmlns="http://www.w3.org/2000/svg">
<g clip-path="url(#clip0_1279_1024)">
<path d="M8.31229 4.2931C8.31229 3.87138 8.47982 3.46693 8.77802 3.16873C9.07623 2.87053 9.48067 2.703 9.90239 2.703C10.3241 2.703 10.7286 2.87053 11.0268 3.16873C11.325 3.46693 11.4925 3.87138 11.4925 4.2931C12.4055 4.72484 13.1839 5.39689 13.7441 6.23724C14.3043 7.07759 14.6253 8.05454 14.6727 9.06341V11.4486C14.7325 11.9428 14.9076 12.4162 15.1838 12.8305C15.4599 13.2447 15.8295 13.5884 16.2628 13.8337H3.54199C3.97525 13.5884 4.34484 13.2447 4.62102 12.8305C4.89721 12.4162 5.07226 11.9428 5.13209 11.4486V9.06341C5.17945 8.05454 5.50044 7.07759 6.06067 6.23724C6.6209 5.39689 7.39925 4.72484 8.31229 4.2931" stroke="#0A376E" stroke-width="1.19258" stroke-linecap="round" stroke-linejoin="round"/>
<path d="M7.5166 13.8337V14.6288C7.5166 15.2613 7.76789 15.868 8.2152 16.3153C8.6625 16.7626 9.26917 17.0139 9.90175 17.0139C10.5343 17.0139 11.141 16.7626 11.5883 16.3153C12.0356 15.868 12.2869 15.2613 12.2869 14.6288V13.8337" stroke="#0A376E" stroke-width="1.19258" stroke-linecap="round" stroke-linejoin="round"/>
</g>
<defs>
<clipPath id="clip0_1279_1024">
<rect width="19.0812" height="19.0812" fill="white" transform="translate(0.361328 0.317856)"/>
</clipPath>
</defs>
</svg>
