<svg width="15" height="15" viewBox="0 0 15 15" fill="none" xmlns="http://www.w3.org/2000/svg">
<path d="M4.32139 13.3525C4.33557 13.6873 4.61074 13.9511 4.94547 13.9511H10.7764C11.1112 13.9511 11.3877 13.6873 11.4005 13.3525L11.8175 4.56143H3.90438L4.32139 13.3525ZM9.17933 6.74573C9.17933 6.60531 9.2928 6.49184 9.43322 6.49184H9.83888C9.9793 6.49184 10.0928 6.60673 10.0928 6.74573V11.7682C10.0928 11.9086 9.97788 12.0221 9.83888 12.0221H9.43322C9.2928 12.0221 9.17933 11.9086 9.17933 11.7682V6.74573ZM7.40494 6.74573C7.40494 6.60531 7.51841 6.49184 7.65883 6.49184H8.06449C8.20491 6.49184 8.31838 6.60673 8.31838 6.74573V11.7682C8.31838 11.9086 8.20491 12.0221 8.06449 12.0221H7.65883C7.51841 12.0221 7.40494 11.9086 7.40494 11.7682V6.74573ZM5.62913 6.74573C5.62913 6.60531 5.7426 6.49184 5.8816 6.49184H6.28726C6.42768 6.49184 6.54115 6.60673 6.54115 6.74573V11.7682C6.54115 11.9086 6.42626 12.0221 6.28726 12.0221H5.8816C5.74118 12.0221 5.62913 11.9086 5.62913 11.7682V6.74573ZM12.0941 2.17997H9.40485V1.67077C9.40485 1.59844 9.3467 1.54028 9.27436 1.54028H6.44895C6.37662 1.54028 6.31846 1.59844 6.31846 1.67077V2.17997H3.6278C3.41221 2.17997 3.23633 2.35443 3.23633 2.57144V3.8026H12.4856V2.57144C12.4856 2.35585 12.3111 2.17997 12.0941 2.17997Z" fill="#FF6760"/>
</svg>
