<svg width="24" height="24" viewBox="0 0 24 24" fill="none" xmlns="http://www.w3.org/2000/svg">
<g clip-path="url(#clip0_385_1523)">
<path d="M15 8C15 5.79 13.21 4 11 4C8.79 4 7 5.79 7 8C7 10.21 8.79 12 11 12C13.21 12 15 10.21 15 8ZM13 8C13 9.1 12.1 10 11 10C9.9 10 9 9.1 9 8C9 6.9 9.9 6 11 6C12.1 6 13 6.9 13 8Z" fill="#FF6760"/>
<path d="M3 18V20H19V18C19 15.34 13.67 14 11 14C8.33 14 3 15.34 3 18ZM5 18C5.2 17.29 8.3 16 11 16C13.69 16 16.77 17.28 17 18H5Z" fill="#FF6760"/>
<path d="M5 10H-1V12H5V10Z" fill="#FF6760"/>
</g>
<defs>
<clipPath id="clip0_385_1523">
<rect width="24" height="24" fill="white"/>
</clipPath>
</defs>
</svg>
