<svg width="229" height="89" viewBox="0 0 229 89" fill="none" xmlns="http://www.w3.org/2000/svg">
<path d="M23.0739 53.3295L22.293 53.1919C21.6214 53.107 21.4353 53.1879 21.0024 53.2486C20.5614 53.3093 20.1325 53.4185 19.7117 53.5439C19.4326 53.6248 19.4973 53.6248 19.2141 53.7058C19.2181 53.7058 18.8742 53.7988 18.8783 53.8029C17.5107 54.345 15.775 55.0045 14.8161 55.6316L14.8323 50.7765C14.8323 50.7765 14.8647 50.817 14.8445 49.6072C14.8404 49.502 14.8121 48.8183 14.7919 48.6928C14.7838 48.6605 14.7838 48.6888 14.7797 48.6362C14.6867 47.916 14.5087 47.1635 14.1081 46.7144C12.9914 45.4682 12.1054 42.5835 11.9314 42.102C11.5754 40.7871 11.3852 39.4115 11.3852 38.0035C11.3852 29.2117 18.6153 22.0584 27.5042 22.0584C32.6668 22.0584 37.2711 24.4739 40.2206 28.2244C40.8801 28.0707 41.5517 27.9534 42.2355 27.8684C38.9906 23.256 33.5974 20.2297 27.5002 20.2297C17.6038 20.2297 9.54834 28.2042 9.54834 38.0035C9.54834 41.8633 10.7985 45.4925 12.9752 48.4541V59.2608L14.452 58.1118C15.5849 57.2298 18.2269 56.2142 20.6059 55.5426C21.2816 55.486 22.3295 55.4415 22.8999 55.5426C24.7975 55.7166 25.9384 55.7773 27.5002 55.7773C27.6296 55.7773 27.7591 55.7692 27.8845 55.7692C27.5609 55.1744 27.2695 54.5635 27.0066 53.9323C25.6835 53.8878 24.3605 53.6936 23.0739 53.3295Z" fill="white"/>
<path d="M43.6273 38.0277C42.3406 38.2584 41.1431 38.7762 40.0385 39.5854C39.994 39.6178 39.9535 39.6502 39.9131 39.6866C39.905 39.6906 39.905 39.7028 39.8807 39.7594C40.3541 40.2206 40.8396 40.6981 41.3737 41.224C39.5085 41.6731 37.704 42.1101 35.8388 42.5592C36.2353 40.6738 36.6197 38.8491 37.0162 36.9637C37.5219 37.4856 37.9872 37.963 38.4566 38.4485C40.0223 37.2064 41.7054 36.4337 43.5221 36.1423C43.1741 33.1767 41.9967 30.4618 40.2327 28.2204C31.8414 30.1746 25.5864 37.696 25.5864 46.682C25.5864 49.2471 26.1003 51.6949 27.0227 53.9283C27.1846 53.9323 27.3505 53.9445 27.5123 53.9445C30.5872 53.9445 33.4598 53.0867 35.9076 51.6059C35.236 50.3598 34.8516 49.057 34.7505 47.8675C35.1267 47.8675 35.503 47.8675 35.8793 47.8675C36.5833 47.8675 36.5631 47.8715 36.7451 48.5512C36.9353 49.2633 37.1821 49.9188 37.4734 50.5216C41.2078 47.6045 43.6151 43.0933 43.6273 38.0277Z" fill="white"/>
<path d="M51.0231 40.0831C49.4735 38.6872 47.6285 37.959 45.5368 37.8902C45.5085 37.8902 45.4842 37.8902 45.4559 37.8902C45.4559 37.9266 45.4599 37.963 45.4599 38.0035C45.4599 38.4121 45.4397 38.8167 45.4114 39.2213C45.4842 39.2577 45.5247 39.3225 45.5287 39.4519C45.5975 40.7466 45.6784 42.0454 45.7553 43.3401C45.8079 44.2504 45.8605 45.1567 45.9252 46.067C45.9333 46.1803 46.0142 46.3017 46.0911 46.3867C47.0621 47.471 48.0372 48.5472 49.0082 49.6234C49.0729 49.6962 49.1336 49.7731 49.2105 49.8621C49.0527 50.0442 48.903 50.2101 48.7412 50.3921C48.6603 50.3274 48.5874 50.2748 48.5227 50.2141C47.2523 49.0772 45.9859 47.9362 44.7074 46.8034C44.5577 46.6699 44.501 46.5364 44.5172 46.3381C44.5941 45.2052 44.6669 44.0683 44.7397 42.9355C43.6635 46.6132 41.4221 49.8055 38.4321 52.0833C39.654 53.641 41.3816 54.6768 43.615 55.1502C47.2118 55.9108 51.0554 54.0739 52.8235 50.8534C54.8141 47.2282 54.0939 42.8465 51.0231 40.0831Z" fill="white"/>
<path d="M44.5415 27.7228C43.7606 27.7228 42.996 27.7754 42.2394 27.8684C41.5556 27.9493 40.884 28.0707 40.2245 28.2245C41.9885 30.4659 43.1659 33.1848 43.5138 36.1464C44.1086 36.0493 44.7195 36.0048 45.3426 36.0129C45.6825 36.0169 46.0264 36.0372 46.3743 36.0736C48.899 36.3325 51.0636 37.3925 52.8397 39.2051C56.2181 42.6604 56.825 48.0819 54.3003 52.144C51.6907 56.3478 46.6859 58.1684 42.118 56.7443C39.8523 56.0403 38.1206 54.7051 36.9028 53.1393C36.5184 52.6457 36.1826 52.1319 35.9034 51.61C33.4556 53.0908 30.583 53.9485 27.5081 53.9485C27.3463 53.9485 27.1804 53.9364 27.0186 53.9323C27.2775 54.5635 27.5728 55.1744 27.8965 55.7692C31.113 61.656 37.364 65.6494 44.5456 65.6494C46.4755 65.6494 48.3325 65.354 50.0844 64.82L50.0683 64.8321C53.1068 64.1766 58.7549 67.4013 58.7549 67.4013V59.2325C58.8196 59.1597 58.8844 59.0949 58.945 59.0221C61.7853 55.7045 63.5048 51.3996 63.5048 46.6861C63.5048 36.2111 55.0124 27.7228 44.5415 27.7228Z" fill="white"/>
<path d="M44.7479 42.9314C44.7802 42.4095 44.8167 41.8876 44.849 41.3697C44.8895 40.7304 44.934 40.0912 44.9623 39.4519C44.9704 39.2618 45.0149 39.1809 45.2253 39.1809C45.3062 39.1809 45.3629 39.193 45.4114 39.2173C45.4397 38.8167 45.46 38.4121 45.46 37.9994C45.46 37.963 45.4559 37.9266 45.4559 37.8862C44.8288 37.87 44.2179 37.9185 43.6272 38.0278C43.6191 43.0892 41.2077 47.6045 37.4692 50.5216C37.7484 51.088 38.0721 51.61 38.4403 52.0833C41.4302 49.8014 43.6717 46.6132 44.7479 42.9314Z" fill="white"/>
<path d="M86.7592 57C86.4529 57 86.1926 56.8928 85.9783 56.6785C85.7639 56.4641 85.6567 56.2038 85.6567 55.8976V30.4959H77.1589C76.8527 30.4959 76.5924 30.3888 76.378 30.1744C76.1637 29.96 76.0565 29.6997 76.0565 29.3935V25.9944C76.0565 25.6575 76.1637 25.3819 76.378 25.1676C76.5924 24.9532 76.8527 24.846 77.1589 24.846H100.585C100.922 24.846 101.198 24.9532 101.412 25.1676C101.627 25.3819 101.734 25.6575 101.734 25.9944V29.3935C101.734 29.6997 101.627 29.96 101.412 30.1744C101.198 30.3888 100.922 30.4959 100.585 30.4959H92.1335V55.8976C92.1335 56.2038 92.0263 56.4641 91.8119 56.6785C91.5976 56.8928 91.322 57 90.9851 57H86.7592ZM111.793 57.4593C109.925 57.4593 108.302 57.0459 106.924 56.2191C105.577 55.3617 104.535 54.1674 103.8 52.6362C103.065 51.0745 102.698 49.2371 102.698 47.1241V34.2166C102.698 33.9104 102.805 33.6501 103.02 33.4357C103.234 33.2214 103.494 33.1142 103.8 33.1142H107.843C108.179 33.1142 108.44 33.2214 108.624 33.4357C108.838 33.6501 108.945 33.9104 108.945 34.2166V46.8485C108.945 50.6458 110.614 52.5444 113.952 52.5444C115.544 52.5444 116.8 52.0391 117.718 51.0285C118.668 50.018 119.142 48.6247 119.142 46.8485V34.2166C119.142 33.9104 119.25 33.6501 119.464 33.4357C119.678 33.2214 119.939 33.1142 120.245 33.1142H124.287C124.593 33.1142 124.854 33.2214 125.068 33.4357C125.282 33.6501 125.39 33.9104 125.39 34.2166V55.8976C125.39 56.2038 125.282 56.4641 125.068 56.6785C124.854 56.8928 124.593 57 124.287 57H120.566C120.23 57 119.954 56.8928 119.74 56.6785C119.556 56.4641 119.464 56.2038 119.464 55.8976V54.0143C118.637 55.0861 117.611 55.9282 116.386 56.5407C115.161 57.1531 113.63 57.4593 111.793 57.4593ZM132.56 57C132.253 57 131.993 56.8928 131.779 56.6785C131.564 56.4641 131.457 56.2038 131.457 55.8976V34.2625C131.457 33.9257 131.564 33.6501 131.779 33.4357C131.993 33.2214 132.253 33.1142 132.56 33.1142H136.28C136.586 33.1142 136.847 33.2214 137.061 33.4357C137.306 33.6501 137.429 33.9257 137.429 34.2625V36.1459C138.133 35.1659 139.036 34.4157 140.139 33.8951C141.272 33.3745 142.573 33.1142 144.043 33.1142H145.926C146.263 33.1142 146.524 33.2214 146.707 33.4357C146.922 33.6501 147.029 33.9104 147.029 34.2166V37.5239C147.029 37.8301 146.922 38.0904 146.707 38.3048C146.524 38.5191 146.263 38.6263 145.926 38.6263H142.344C140.874 38.6263 139.725 39.0397 138.898 39.8665C138.102 40.6933 137.704 41.8264 137.704 43.2657V55.8976C137.704 56.2038 137.597 56.4641 137.383 56.6785C137.168 56.8928 136.893 57 136.556 57H132.56ZM151.714 57C151.408 57 151.147 56.8928 150.933 56.6785C150.719 56.4641 150.611 56.2038 150.611 55.8976V34.2166C150.611 33.9104 150.719 33.6501 150.933 33.4357C151.147 33.2214 151.408 33.1142 151.714 33.1142H155.48C155.787 33.1142 156.047 33.2214 156.261 33.4357C156.476 33.6501 156.583 33.9104 156.583 34.2166V36.0999C157.379 35.12 158.39 34.3085 159.614 33.6654C160.87 32.9917 162.416 32.6548 164.254 32.6548C166.122 32.6548 167.745 33.0836 169.123 33.941C170.501 34.7678 171.557 35.9468 172.292 37.4779C173.058 39.0091 173.441 40.8465 173.441 42.9901V55.8976C173.441 56.2038 173.333 56.4641 173.119 56.6785C172.905 56.8928 172.644 57 172.338 57H168.296C167.99 57 167.73 56.8928 167.515 56.6785C167.301 56.4641 167.194 56.2038 167.194 55.8976V43.2657C167.194 41.4895 166.75 40.0962 165.862 39.0856C165.004 38.0751 163.749 37.5698 162.095 37.5698C160.503 37.5698 159.232 38.0751 158.282 39.0856C157.333 40.0962 156.858 41.4895 156.858 43.2657V55.8976C156.858 56.2038 156.751 56.4641 156.537 56.6785C156.323 56.8928 156.062 57 155.756 57H151.714ZM189.84 57.4593C187.39 57.4593 185.323 57.0306 183.639 56.1732C181.986 55.3157 180.715 54.1061 179.827 52.5444C178.969 50.9826 178.479 49.1606 178.357 47.0782C178.326 46.527 178.311 45.8533 178.311 45.0571C178.311 44.2609 178.326 43.5872 178.357 43.036C178.479 40.923 178.984 39.101 179.873 37.5698C180.791 36.008 182.077 34.7984 183.731 33.941C185.415 33.0836 187.452 32.6548 189.84 32.6548C192.229 32.6548 194.25 33.0836 195.904 33.941C197.588 34.7984 198.874 36.008 199.762 37.5698C200.681 39.101 201.201 40.923 201.324 43.036C201.354 43.5872 201.37 44.2609 201.37 45.0571C201.37 45.8533 201.354 46.527 201.324 47.0782C201.201 49.1606 200.696 50.9826 199.808 52.5444C198.951 54.1061 197.68 55.3157 195.995 56.1732C194.342 57.0306 192.29 57.4593 189.84 57.4593ZM189.84 52.9119C191.463 52.9119 192.719 52.4066 193.607 51.396C194.495 50.3548 194.985 48.839 195.077 46.8485C195.107 46.3892 195.123 45.792 195.123 45.0571C195.123 44.3221 195.107 43.725 195.077 43.2657C194.985 41.3058 194.495 39.8053 193.607 38.7641C192.719 37.7229 191.463 37.2023 189.84 37.2023C188.217 37.2023 186.962 37.7229 186.074 38.7641C185.186 39.8053 184.696 41.3058 184.604 43.2657C184.573 43.725 184.558 44.3221 184.558 45.0571C184.558 45.792 184.573 46.3892 184.604 46.8485C184.696 48.839 185.186 50.3548 186.074 51.396C186.962 52.4066 188.217 52.9119 189.84 52.9119ZM215.508 57.4593C213.671 57.4593 212.094 57.245 210.777 56.8163C209.491 56.3875 208.434 55.8516 207.608 55.2086C206.781 54.5655 206.168 53.9224 205.77 53.2793C205.372 52.6362 205.158 52.1003 205.127 51.6716C205.096 51.3348 205.188 51.0745 205.403 50.8907C205.648 50.6764 205.908 50.5692 206.184 50.5692H209.812C209.935 50.5692 210.042 50.5845 210.134 50.6151C210.226 50.6458 210.348 50.7376 210.501 50.8907C210.899 51.2276 211.313 51.5798 211.742 51.9472C212.201 52.3147 212.737 52.6362 213.349 52.9119C213.962 53.1568 214.727 53.2793 215.646 53.2793C216.84 53.2793 217.836 53.0497 218.632 52.5903C219.459 52.1003 219.872 51.4113 219.872 50.5233C219.872 49.8802 219.688 49.3596 219.321 48.9615C218.984 48.5634 218.341 48.2112 217.392 47.905C216.442 47.5682 215.095 47.216 213.349 46.8485C211.634 46.4504 210.21 45.9452 209.077 45.3327C207.944 44.7202 207.102 43.9547 206.551 43.036C206 42.1173 205.724 41.0455 205.724 39.8206C205.724 38.6263 206.076 37.4933 206.781 36.4215C207.516 35.319 208.587 34.4157 209.996 33.7113C211.435 33.007 213.211 32.6548 215.324 32.6548C216.978 32.6548 218.417 32.8692 219.642 33.2979C220.867 33.696 221.878 34.2013 222.674 34.8138C223.501 35.4262 224.129 36.054 224.557 36.6971C224.986 37.3095 225.216 37.8454 225.246 38.3048C225.277 38.6416 225.185 38.9172 224.971 39.1316C224.756 39.3153 224.511 39.4072 224.236 39.4072H220.837C220.683 39.4072 220.546 39.3766 220.423 39.3153C220.301 39.2541 220.178 39.1775 220.056 39.0856C219.719 38.7794 219.351 38.4579 218.953 38.121C218.555 37.7842 218.065 37.4933 217.483 37.2483C216.932 36.9727 216.197 36.8349 215.279 36.8349C214.115 36.8349 213.227 37.0952 212.614 37.6157C212.002 38.1057 211.696 38.7335 211.696 39.4991C211.696 40.0196 211.833 40.479 212.109 40.8771C212.415 41.2446 213.012 41.5967 213.9 41.9336C214.789 42.2704 216.136 42.6226 217.943 42.9901C219.994 43.3575 221.617 43.9087 222.812 44.6437C224.037 45.348 224.894 46.1748 225.384 47.1241C225.905 48.0428 226.165 49.0687 226.165 50.2017C226.165 51.5798 225.752 52.82 224.925 53.9224C224.129 55.0248 222.934 55.8976 221.342 56.5407C219.78 57.1531 217.836 57.4593 215.508 57.4593Z" fill="white"/>
</svg>
